<?xml version="1.0" encoding="iso-8859-1"?>
<!-- Generator: Adobe Illustrator 19.0.0, SVG Export Plug-In . SVG Version: 6.00 Build 0)  -->
<svg version="1.1" id="Capa_1" xmlns="http://www.w3.org/2000/svg" xmlns:xlink="http://www.w3.org/1999/xlink" x="0px" y="0px"
	 viewBox="0 0 512 512" style="enable-background:new 0 0 512 512;" xml:space="preserve">
<circle style="fill:#2864F0;" cx="256" cy="256" r="256"/>
<path style="fill:#0053BF;" d="M261.104,511.936c126.942-2.484,231.223-97.359,248.397-220.164l-73.658-73.658L229.72,315.14
	L119.522,204.942l-26.576,105.43l-34.613-1.207L261.104,511.936z"/>
<path style="fill:#FE9A35;" d="M316.089,181.333c-67.072,0-143.987,16.864-182.941,41.409c-9.38-18.24-26.238-30.409-45.481-30.409
	c-10.839,0-20.917,3.87-29.333,10.501c14.456,11.389,24,30.942,24,53.165s-9.544,41.776-24,53.165
	c8.417,6.631,18.494,10.501,29.333,10.501c19.243,0,36.101-12.169,45.481-30.409c38.954,24.544,115.869,41.409,182.941,41.409
	c94.441,0,133.578-33.429,133.578-74.667S410.529,181.333,316.089,181.333z"/>
<path style="fill:#FF7C11;" d="M82.331,255.905c0,0.032,0.003,0.063,0.003,0.095c0,22.223-9.544,41.776-24,53.165
	c8.417,6.631,18.494,10.501,29.333,10.501c19.243,0,36.101-12.169,45.481-30.409c38.954,24.544,115.869,41.409,182.941,41.409
	c94.441,0,133.578-33.429,133.578-74.667c0-0.032-0.001-0.063-0.001-0.095L82.331,255.905L82.331,255.905z"/>
<path style="fill:#F9C41E;" d="M319.615,181.353C300.686,200.552,289,226.909,289,256s11.686,55.448,30.615,74.647
	C411.5,329.821,449.667,296.719,449.667,256S411.5,182.178,319.615,181.353z"/>
<path style="fill:#FE9A35;" d="M289.001,255.905c0,0.032-0.001,0.063-0.001,0.095c0,29.091,11.686,55.448,30.615,74.647
	C411.5,329.821,449.667,296.719,449.667,256c0-0.032-0.001-0.063-0.001-0.095H289.001z"/>
<circle style="fill:#4D4D4D;" cx="396" cy="243.33" r="11"/>
<g>
</g>
<g>
</g>
<g>
</g>
<g>
</g>
<g>
</g>
<g>
</g>
<g>
</g>
<g>
</g>
<g>
</g>
<g>
</g>
<g>
</g>
<g>
</g>
<g>
</g>
<g>
</g>
<g>
</g>
</svg>
