<?xml version="1.0" encoding="iso-8859-1"?>
<!-- Generator: Adobe Illustrator 19.0.0, SVG Export Plug-In . SVG Version: 6.00 Build 0)  -->
<svg version="1.1" id="Capa_1" xmlns="http://www.w3.org/2000/svg" xmlns:xlink="http://www.w3.org/1999/xlink" x="0px" y="0px"
	 viewBox="0 0 155.301 155.301" style="enable-background:new 0 0 155.301 155.301;" xml:space="preserve">
<g>
	<circle style="fill:#98E2ED;" cx="77.65" cy="77.65" r="77.65"/>
	<g>
		<g>
			<path style="fill:#FFBA00;" d="M78.348,123.036c-0.881,0-2.35-0.062-2.35-0.166v7.387c0,0-9.508-0.917-9.633,2.063
				c-0.126,2.98,11.672,0.458,11.672,0.458s12.14,2.522,12.014-0.458c-0.126-2.979-9.053-2.063-9.053-2.063v-7.424
				C79.998,122.964,79.332,123.036,78.348,123.036z"/>
			<path style="fill:#FFFFFF;" d="M97.201,93.824c-0.367-0.888-0.794-1.743-1.274-2.566c7.979-5.707,13.186-15.043,13.186-25.602
				c0-16.187-12.228-29.511-27.948-31.259c-1.407,1.296-3.301,2.46-5.405,3.021c0,0-0.662-1.228-1.195-3.058
				c-15.926,1.553-28.376,14.964-28.376,31.296c0,10.559,5.206,19.894,13.185,25.602c-0.479,0.823-0.907,1.679-1.273,2.566
				c-1.861,1.653-4.149,4.215-6.089,7.994c-4.045,7.88-4.732,16.53,2.693,12.54c0,0,0.606,6.404,5.814,3.184
				c0.541-0.335,0.976-0.893,1.332-1.605c3.33,3.743,7.969,6.292,13.2,6.934c0.854,0.104,1.72,0.166,2.601,0.166
				c0.985,0,1.952-0.072,2.901-0.203c5.108-0.701,9.633-3.225,12.9-6.896c0.355,0.713,0.79,1.271,1.331,1.605
				c5.209,3.221,5.814-3.184,5.814-3.184c7.424,3.99,6.738-4.66,2.693-12.54C101.35,98.039,99.062,95.478,97.201,93.824z
				 M78.014,104.874c-6.993,0-12.662-5.668-12.662-12.662c0-2.509,0.739-4.84,1.998-6.808c-1.123,0.45-2.347,0.706-3.632,0.706
				c-5.381,0-9.743-4.361-9.743-9.743c0-4.267,2.748-7.884,6.566-9.202c-2.327-1.78-3.835-4.578-3.835-7.734
				c0-5.382,4.363-9.744,9.744-9.744c5.38,0,9.744,4.362,9.744,9.744c0,1.322-0.267,2.584-0.745,3.734
				c0.626-0.114,1.268-0.183,1.927-0.183c0.874,0,1.719,0.116,2.532,0.313c-0.514-1.184-0.802-2.491-0.802-3.865
				c0-5.382,4.363-9.744,9.744-9.744c5.381,0,9.743,4.362,9.743,9.744c0,3.156-1.507,5.953-3.834,7.734
				c3.819,1.318,6.567,4.936,6.567,9.202c0,5.382-4.362,9.743-9.744,9.743c-0.941,0-1.849-0.141-2.71-0.39
				c1.139,1.899,1.806,4.115,1.806,6.491C90.676,99.206,85.007,104.874,78.014,104.874z"/>
			<path style="fill:#D65228;" d="M90.676,92.212c0-2.376-0.667-4.592-1.806-6.491c0.862,0.249,1.77,0.39,2.71,0.39
				c5.382,0,9.744-4.361,9.744-9.743c0-4.267-2.748-7.884-6.567-9.202c2.327-1.781,3.834-4.578,3.834-7.734
				c0-5.382-4.361-9.744-9.743-9.744c-5.38,0-9.744,4.362-9.744,9.744c0,1.374,0.288,2.681,0.802,3.865
				c-0.813-0.197-1.658-0.313-2.532-0.313c-0.659,0-1.301,0.068-1.927,0.183c0.479-1.15,0.745-2.412,0.745-3.734
				c0-5.382-4.364-9.744-9.744-9.744c-5.381,0-9.744,4.362-9.744,9.744c0,3.156,1.508,5.954,3.835,7.734
				c-3.818,1.318-6.566,4.936-6.566,9.202c0,5.382,4.362,9.743,9.743,9.743c1.285,0,2.509-0.256,3.632-0.706
				c-1.259,1.968-1.998,4.299-1.998,6.808c0,6.994,5.668,12.662,12.662,12.662C85.007,104.874,90.676,99.206,90.676,92.212z
				 M86.711,58.064c2.282-0.757,4.746,0.479,5.504,2.761c0.758,2.282-0.479,4.746-2.76,5.504c-2.282,0.758-4.747-0.478-5.505-2.76
				C83.193,61.288,84.429,58.823,86.711,58.064z M77.954,68.543c0,0,4.08,4.533,8.243,4.552c2.821,0.013,3.367,1.907,3.088,3.306
				c-0.454,2.265-9.972,8.61-11.331,11.179c-1.36-2.568-10.877-8.914-11.33-11.179c-0.28-1.398,0.267-3.293,3.087-3.306
				C73.874,73.076,77.954,68.543,77.954,68.543z M63.354,60.825c0.76-2.282,3.224-3.517,5.504-2.761
				c2.282,0.759,3.519,3.224,2.761,5.505c-0.758,2.282-3.222,3.518-5.505,2.76C63.832,65.571,62.597,63.107,63.354,60.825z"/>
			<path style="fill:#FFFFFF;" d="M66.114,66.329c2.283,0.758,4.747-0.478,5.505-2.76c0.758-2.281-0.479-4.746-2.761-5.505
				c-2.281-0.757-4.745,0.479-5.504,2.761C62.597,63.107,63.832,65.571,66.114,66.329z M64.877,61.331
				c0.479-1.441,2.035-2.223,3.476-1.744c1.44,0.479,2.221,2.036,1.742,3.476c-0.06,0.184-0.139,0.356-0.232,0.519
				c-0.286-0.504-0.782-0.926-1.535-1.177c-1.358-0.451-2.573,0-3.394,0.813C64.701,62.637,64.664,61.973,64.877,61.331z"/>
			<path style="fill:#353A42;" d="M68.328,62.405c0.753,0.251,1.249,0.673,1.535,1.177c0.093-0.162,0.173-0.335,0.232-0.519
				c0.479-1.44-0.302-2.997-1.742-3.476c-1.441-0.479-2.997,0.303-3.476,1.744c-0.214,0.642-0.176,1.306,0.057,1.888
				C65.755,62.405,66.969,61.954,68.328,62.405z"/>
			<path style="fill:#FFFFFF;" d="M89.455,66.329c2.281-0.758,3.518-3.222,2.76-5.504c-0.759-2.282-3.223-3.517-5.504-2.761
				c-2.282,0.759-3.518,3.224-2.761,5.505C84.708,65.852,87.173,67.087,89.455,66.329z M87.216,59.587
				c1.441-0.479,2.996,0.303,3.475,1.744c0.214,0.642,0.177,1.306-0.057,1.888c-0.82-0.813-2.036-1.265-3.393-0.813
				c-0.754,0.251-1.249,0.673-1.535,1.177c-0.093-0.162-0.172-0.335-0.233-0.519C84.995,61.623,85.776,60.066,87.216,59.587z"/>
			<path style="fill:#353A42;" d="M85.707,63.582c0.286-0.504,0.782-0.926,1.535-1.177c1.357-0.451,2.573,0,3.393,0.813
				c0.234-0.582,0.271-1.246,0.057-1.888c-0.479-1.441-2.034-2.223-3.475-1.744c-1.44,0.479-2.222,2.036-1.743,3.476
				C85.534,63.247,85.613,63.42,85.707,63.582z"/>
			<path style="fill:#FFBA00;" d="M69.71,73.095c-2.82,0.013-3.367,1.907-3.087,3.306c0.453,2.265,9.97,8.61,11.33,11.179
				c1.359-2.568,10.877-8.914,11.331-11.179c0.279-1.398-0.267-3.293-3.088-3.306c-4.163-0.019-8.243-4.552-8.243-4.552
				S73.874,73.076,69.71,73.095z M83.993,74.725c1.029,0.823-0.411,2.363-1.85,2.363C82.142,75.241,82.965,73.902,83.993,74.725z
				 M71.914,74.725c1.028-0.822,1.851,0.517,1.851,2.363C72.325,77.088,70.886,75.548,71.914,74.725z"/>
			<path style="fill:#CF7128;" d="M71.914,74.725c-1.028,0.823,0.411,2.363,1.851,2.363C73.765,75.241,72.942,73.902,71.914,74.725z
				"/>
			<path style="fill:#CF7128;" d="M83.993,74.725c-1.028-0.822-1.852,0.517-1.85,2.363C83.582,77.088,85.022,75.548,83.993,74.725z"
				/>
			<path style="fill:#D65228;" d="M81.165,34.397c2.041-1.883,3.042-4.044,2.078-5.066c-1.304-1.381-2.449-0.552-2.854-0.165
				c3.363-3.528,0.625-11.259-4.193-5.673c-3.009,3.487-2.482,7.946-1.63,10.867c0.533,1.83,1.195,3.058,1.195,3.058
				C77.863,36.857,79.758,35.693,81.165,34.397z"/>
		</g>
		<path style="opacity:0.3;fill:#FFFFFF;" d="M97.201,93.824c-0.367-0.888-0.794-1.743-1.274-2.566
			c7.979-5.707,13.186-15.043,13.186-25.602c0-16.187-12.228-29.511-27.948-31.259c2.041-1.883,3.042-4.044,2.078-5.066
			c-1.304-1.381-2.449-0.552-2.854-0.165c2.968-3.112,1.184-9.493-2.587-7.114v110.726c0,0,12.035,2.522,11.909-0.458
			c-0.125-2.979-9.158-2.063-9.158-2.063v-7.424c5.108-0.701,9.633-3.225,12.9-6.896c0.355,0.713,0.79,1.271,1.331,1.605
			c5.209,3.221,5.814-3.184,5.814-3.184c7.424,3.99,6.738-4.66,2.693-12.54C101.35,98.039,99.062,95.478,97.201,93.824z"/>
	</g>
</g>
<g>
</g>
<g>
</g>
<g>
</g>
<g>
</g>
<g>
</g>
<g>
</g>
<g>
</g>
<g>
</g>
<g>
</g>
<g>
</g>
<g>
</g>
<g>
</g>
<g>
</g>
<g>
</g>
<g>
</g>
</svg>
