<?xml version="1.0" encoding="iso-8859-1"?>
<!-- Generator: Adobe Illustrator 19.0.0, SVG Export Plug-In . SVG Version: 6.00 Build 0)  -->
<svg version="1.1" id="Layer_1" xmlns="http://www.w3.org/2000/svg" xmlns:xlink="http://www.w3.org/1999/xlink" x="0px" y="0px"
	 viewBox="0 0 512 512" style="enable-background:new 0 0 512 512;" xml:space="preserve">
<circle style="fill:#386895;" cx="256" cy="256" r="256"/>
<g>
	<polygon style="fill:#273B7A;" points="44.632,244.979 151.726,352.073 151.726,239.623 	"/>
	<path style="fill:#273B7A;" d="M429.842,202.016L148.516,359l149.473,149.552c112.766-18.61,200.68-110.897,212.62-225.776
		L429.842,202.016z"/>
</g>
<path style="fill:#D34040;" d="M329.923,214.161c6.232-27.793,33.814-45.273,61.609-39.041c27.795,6.232,75.838,69.86,75.838,69.86
	S396.757,282,368.964,275.768C341.171,269.536,323.691,241.954,329.923,214.161z"/>
<path style="fill:#FF6262;" d="M182.077,214.161c-6.232-27.793-33.814-45.273-61.609-39.041s-75.836,69.86-75.836,69.86
	s70.613,37.021,98.406,30.789S188.309,241.954,182.077,214.161z"/>
<ellipse style="fill:#FFAD9E;" cx="256" cy="276.687" rx="144.808" ry="122.828"/>
<path style="fill:#D66E61;" d="M256,153.86c-0.193,0-0.381,0.012-0.574,0.012v245.632c0.193,0,0.381,0.012,0.574,0.012
	c79.975,0,144.808-54.993,144.808-122.828S335.975,153.86,256,153.86z"/>
<g>
	<circle style="fill:#1E262B;" cx="186.044" cy="293.495" r="8.189"/>
	<circle style="fill:#1E262B;" cx="325.956" cy="293.495" r="8.189"/>
</g>
<ellipse style="fill:#FF6262;" cx="256" cy="341.333" rx="57.458" ry="34.909"/>
<path style="fill:#D34040;" d="M256,306.428c-0.193,0-0.383,0.007-0.574,0.009v69.801c0.191,0.002,0.381,0.009,0.574,0.009
	c31.735,0,57.463-15.629,57.463-34.909C313.463,322.057,287.735,306.428,256,306.428z"/>
<circle style="fill:#CC3636;" cx="229.279" cy="341.333" r="8.62"/>
<circle style="fill:#BC2F2F;" cx="282.721" cy="341.333" r="8.62"/>
<g>
</g>
<g>
</g>
<g>
</g>
<g>
</g>
<g>
</g>
<g>
</g>
<g>
</g>
<g>
</g>
<g>
</g>
<g>
</g>
<g>
</g>
<g>
</g>
<g>
</g>
<g>
</g>
<g>
</g>
</svg>
