<?xml version="1.0" encoding="iso-8859-1"?>
<!-- Generator: Adobe Illustrator 19.0.0, SVG Export Plug-In . SVG Version: 6.00 Build 0)  -->
<svg version="1.1" id="Capa_1" xmlns="http://www.w3.org/2000/svg" xmlns:xlink="http://www.w3.org/1999/xlink" x="0px" y="0px"
	 viewBox="0 0 512 512" style="enable-background:new 0 0 512 512;" xml:space="preserve">
<circle style="fill:#2864F0;" cx="256" cy="256" r="256"/>
<path style="fill:#0053BF;" d="M512,256c0-1.244-0.029-2.481-0.047-3.721l-99.128-99.128l5.381,47.226L292.178,74.35
	l-86.631,136.317l-112.922-5.441l108.522,108.522l-77.938,86.166l111.169,111.169C241.508,511.679,248.716,512,256,512
	C397.385,512,512,397.385,512,256z"/>
<path style="fill:#FFC855;" d="M301.667,149.667h-91.333V99.333c0-20.803,16.864-37.667,37.667-37.667h16
	c20.803,0,37.667,16.864,37.667,37.667L301.667,149.667L301.667,149.667z"/>
<path style="fill:#E4AB47;" d="M301.667,99.333c0-20.803-16.864-37.667-37.667-37.667h-8.048v88h45.714V99.333H301.667z"/>
<g>
	<path style="fill:#FFC855;" d="M171.138,242.922l-67.539-29.4c-14.857-6.467-21.659-23.755-15.191-38.612l6.381-14.658
		c6.468-14.857,23.755-21.659,38.612-15.192l67.539,29.399c3.882,1.69,5.659,6.207,3.969,10.089l-23.682,54.403
		C179.537,242.835,175.02,244.612,171.138,242.922z"/>
	<path style="fill:#FFC855;" d="M226.02,354.157l-49.529,54.521c-10.896,11.994-29.453,12.884-41.447,1.988l-11.835-10.752
		c-11.993-10.896-12.883-29.452-1.988-41.446l49.53-54.522c2.847-3.134,7.696-3.366,10.829-0.519l43.919,39.901
		C228.634,346.175,228.866,351.023,226.02,354.157z"/>
</g>
<g>
	<path style="fill:#E4AB47;" d="M340.862,242.922l67.539-29.4c14.857-6.467,21.659-23.755,15.191-38.612l-6.381-14.658
		c-6.467-14.857-23.755-21.659-38.612-15.192l-67.539,29.399c-3.882,1.69-5.659,6.207-3.969,10.089l23.682,54.403
		C332.463,242.835,336.98,244.612,340.862,242.922z"/>
	<path style="fill:#E4AB47;" d="M285.98,354.157l49.529,54.521c10.896,11.994,29.453,12.884,41.447,1.988l11.835-10.752
		c11.993-10.896,12.883-29.452,1.988-41.446l-49.53-54.522c-2.847-3.134-7.696-3.366-10.829-0.519l-43.92,39.901
		C283.366,346.175,283.134,351.023,285.98,354.157z"/>
</g>
<ellipse style="fill:#45BF55;" cx="256" cy="261.33" rx="127.54" ry="144.87"/>
<g>
	<path style="fill:#2DA641;" d="M256,116.464c-0.016,0-0.032,0-0.048,0v289.737c0.016,0,0.032,0.001,0.048,0.001
		c70.44,0,127.544-64.86,127.544-144.869S326.44,116.464,256,116.464z"/>
	<ellipse style="fill:#2DA641;" cx="256" cy="261.33" rx="102.61" ry="116.54"/>
</g>
<path style="fill:#0A8F2C;" d="M256,144.79c-0.016,0-0.032,0.001-0.048,0.001v233.085c0.016,0,0.032,0,0.048,0
	c56.667,0,102.605-52.178,102.605-116.543S312.667,144.79,256,144.79z"/>
<circle style="fill:#333333;" cx="234.25" cy="90.33" r="6"/>
<circle style="fill:#1A1A1A;" cx="277.75" cy="90.33" r="6"/>
<g>
</g>
<g>
</g>
<g>
</g>
<g>
</g>
<g>
</g>
<g>
</g>
<g>
</g>
<g>
</g>
<g>
</g>
<g>
</g>
<g>
</g>
<g>
</g>
<g>
</g>
<g>
</g>
<g>
</g>
</svg>
