<?xml version="1.0" encoding="iso-8859-1"?>
<!-- Generator: Adobe Illustrator 19.0.0, SVG Export Plug-In . SVG Version: 6.00 Build 0)  -->
<svg version="1.1" id="Capa_1" xmlns="http://www.w3.org/2000/svg" xmlns:xlink="http://www.w3.org/1999/xlink" x="0px" y="0px"
	 viewBox="0 0 512 512" style="enable-background:new 0 0 512 512;" xml:space="preserve">
<circle style="fill:#2864F0;" cx="256" cy="256" r="256"/>
<path style="fill:#0053BF;" d="M508.914,295.807L305.287,92.18L110.165,387.422l123.607,123.607
	C241.099,511.659,248.509,512,256,512C383.844,512,489.791,418.285,508.914,295.807z"/>
<path style="fill:#9CF1FF;" d="M296.649,82.959c32.994,31.118,80.159,126.138,49.042,159.13s-128.733-8.536-161.727-39.654
	s-34.515-83.089-3.398-116.082S263.655,51.842,296.649,82.959z"/>
<path style="fill:#FFEA3A;" d="M328.357,420.78H188.309c-59.767,0-108.218-48.451-108.218-108.218l0,0
	c0-59.767,48.451-108.218,108.218-108.218h140.048c59.767,0,108.218,48.451,108.218,108.218l0,0
	C436.576,372.329,388.125,420.78,328.357,420.78z"/>
<path style="fill:#FFC30B;" d="M80.095,312.86c0.162,59.63,48.547,107.92,108.215,107.92h140.048
	c59.668,0,108.053-48.29,108.215-107.92H80.095z"/>
<circle style="fill:#333333;" cx="357.56" cy="276.61" r="16.851"/>
<g>
	<path style="fill:#666666;" d="M178.948,420.372c3.086,0.265,6.207,0.408,9.361,0.408h27.335V204.343H188.31
		c-3.155,0-6.275,0.143-9.361,0.407v215.622H178.948z"/>
	<rect x="256.09" y="204.34" style="fill:#666666;" width="36.697" height="216.44"/>
</g>
<g>
	<path style="fill:#4D4D4D;" d="M178.948,312.86v107.512c3.086,0.265,6.207,0.408,9.361,0.408h27.335V312.86H178.948z"/>
	<rect x="256.09" y="312.86" style="fill:#4D4D4D;" width="36.697" height="107.92"/>
</g>
<path style="fill:#7AE5FE;" d="M257.705,90.448c32.994,31.118,80.159,126.138,49.042,159.13s-128.733-8.536-161.727-39.654
	s-34.515-83.089-3.398-116.082S224.711,59.331,257.705,90.448z"/>
<g>
</g>
<g>
</g>
<g>
</g>
<g>
</g>
<g>
</g>
<g>
</g>
<g>
</g>
<g>
</g>
<g>
</g>
<g>
</g>
<g>
</g>
<g>
</g>
<g>
</g>
<g>
</g>
<g>
</g>
</svg>
