<?xml version="1.0" encoding="iso-8859-1"?>
<!-- Generator: Adobe Illustrator 19.0.0, SVG Export Plug-In . SVG Version: 6.00 Build 0)  -->
<svg version="1.1" id="Capa_1" xmlns="http://www.w3.org/2000/svg" xmlns:xlink="http://www.w3.org/1999/xlink" x="0px" y="0px"
	 viewBox="0 0 512 512" style="enable-background:new 0 0 512 512;" xml:space="preserve">
<circle style="fill:#4ACE5A;" cx="256" cy="256" r="256"/>
<path style="fill:#2EA840;" d="M107.45,328.196L289.124,509.87c122.679-15.85,218.115-118.544,222.684-244.423l-99.68-99.679
	L107.45,328.196z"/>
<polygon style="fill:#FF7C11;" points="419.461,211.158 458.024,247.927 402.07,247.407 "/>
<circle style="fill:#FFC30B;" cx="363.69" cy="209.38" r="65.17"/>
<path style="fill:#FFEA3A;" d="M348.822,265.13c11.511,43.99-14.82,88.983-58.81,100.493
	C114.907,411.441,61.03,260.841,61.03,260.841s143.308-43.011,187.299-54.521S337.312,221.14,348.822,265.13z"/>
<path style="fill:#FFC30B;" d="M348.823,265.13c-10.846-41.45-51.419-67.207-92.87-60.416v167.634
	c10.808-1.408,22.152-3.609,34.06-6.725C334.003,354.113,360.333,309.121,348.823,265.13z"/>
<path style="fill:#FE9A35;" d="M307.666,265.918c-7.605,35.562-42.599,58.226-78.162,50.621
	c-96.196-20.572-112.88-161.896-112.88-161.896s104.858,25.509,140.421,33.114S315.271,230.356,307.666,265.918z"/>
<path style="fill:#FF7C11;" d="M257.045,187.757c-0.354-0.075-0.726-0.156-1.093-0.235v129.251
	c25.067-4.93,46.033-24.291,51.714-50.855C315.271,230.356,292.608,195.362,257.045,187.757z"/>
<circle style="fill:#333333;" cx="395.14" cy="205.12" r="8.667"/>
<g>
</g>
<g>
</g>
<g>
</g>
<g>
</g>
<g>
</g>
<g>
</g>
<g>
</g>
<g>
</g>
<g>
</g>
<g>
</g>
<g>
</g>
<g>
</g>
<g>
</g>
<g>
</g>
<g>
</g>
</svg>
