<?xml version="1.0" encoding="iso-8859-1"?>
<!-- Generator: Adobe Illustrator 19.0.0, SVG Export Plug-In . SVG Version: 6.00 Build 0)  -->
<svg version="1.1" id="Layer_1" xmlns="http://www.w3.org/2000/svg" xmlns:xlink="http://www.w3.org/1999/xlink" x="0px" y="0px"
	 viewBox="0 0 511.999 511.999" style="enable-background:new 0 0 511.999 511.999;" xml:space="preserve">
<g>
	<path style="fill:#C3EA21;" d="M144.664,402.675c-69.889,0-133.018-52.98-136.005-55.523L0,339.781l4.758-10.328
		c1.854-4.028,46.36-98.859,126.331-116.484l6.435-1.418c51.491-11.348,102.618,21.311,113.966,72.803
		c11.348,51.493-21.311,102.617-72.802,113.966l-6.436,1.418C163.022,401.773,153.782,402.675,144.664,402.675z"/>
	<path style="fill:#C3EA21;" d="M357.677,281.941c-33.909,0-67.528-14.791-90.362-43.226
		c-19.357-24.106-28.169-54.308-24.811-85.041c3.358-30.733,18.482-58.32,42.589-77.678l6.419-5.156
		c32.756-26.301,79.453-39.95,135.08-39.535c41.153,0.324,72.694,8.118,74.018,8.449l11.029,2.765l0.318,11.366
		c0.153,5.464,2.85,134.534-75.502,197.451h0.001l-6.42,5.156C408.707,273.62,383.11,281.941,357.677,281.941z"/>
</g>
<path style="fill:#8ADB53;" d="M413.587,102.181c-22.353,5.624-56.132,14.121-86.153,32.202
	c-37.496,22.583-58.637,54.009-62.836,93.404l-0.084,0.792v62.746c-16.317-16.101-34.359-26.118-53.944-29.896
	c-51.131-9.861-97.442,25.126-122.322,43.924l18.089,23.94c21.154-15.984,60.526-45.736,98.55-38.402
	c21.914,4.227,41.959,20.571,59.626,48.589v141.223h30.005V230.201c7.914-69.118,84.937-88.494,126.386-98.922L413.587,102.181z"/>
<g>
</g>
<g>
</g>
<g>
</g>
<g>
</g>
<g>
</g>
<g>
</g>
<g>
</g>
<g>
</g>
<g>
</g>
<g>
</g>
<g>
</g>
<g>
</g>
<g>
</g>
<g>
</g>
<g>
</g>
</svg>
