<?xml version="1.0" encoding="iso-8859-1"?>
<!-- Generator: Adobe Illustrator 19.0.0, SVG Export Plug-In . SVG Version: 6.00 Build 0)  -->
<svg version="1.1" id="Capa_1" xmlns="http://www.w3.org/2000/svg" xmlns:xlink="http://www.w3.org/1999/xlink" x="0px" y="0px"
	 viewBox="0 0 512 512" style="enable-background:new 0 0 512 512;" xml:space="preserve">
<circle style="fill:#2864F0;" cx="256" cy="256" r="256"/>
<path style="fill:#0053BF;" d="M511.845,264.482L340.333,92.971L117.667,311.426l102.631,102.631l-42.244,10.589l20.099,20.099
	l-10.847,0.463l66.767,66.767C254.716,511.98,255.356,512,256,512C394.545,512,507.368,401.939,511.845,264.482z"/>
<path style="fill:#FFEA3A;" d="M256,380.971L256,380.971c-67.214,0-121.702-54.488-121.702-121.702V180.71
	c0-67.214,54.488-121.702,121.702-121.702l0,0c67.214,0,121.702,54.488,121.702,121.702v78.559
	C377.702,326.483,323.214,380.971,256,380.971z"/>
<path style="fill:#FFC30B;" d="M256,59.008L256,59.008c-0.016,0-0.032,0.001-0.048,0.001V380.97c0.016,0,0.032,0.001,0.047,0.001
	l0,0c67.214,0,121.702-54.488,121.702-121.702V180.71C377.702,113.495,323.214,59.008,256,59.008z"/>
<polygon style="fill:#FF8700;" points="288.682,177.171 255.952,230.471 223.318,177.17 "/>
<polygon style="fill:#FF7C11;" points="288.682,177.171 255.952,177.17 255.952,230.454 255.952,230.471 "/>
<circle style="fill:#4D4D4D;" cx="190.34" cy="160.67" r="13.247"/>
<circle style="fill:#333333;" cx="321.66" cy="160.67" r="13.247"/>
<path style="fill:#FF8700;" d="M129.289,316.75L129.289,316.75c-8.483,0-15.359-6.876-15.359-15.359V191.575
	c0-8.482,6.876-15.359,15.359-15.359l0,0c8.482,0,15.359,6.876,15.359,15.359v109.816
	C144.648,309.874,137.772,316.75,129.289,316.75z"/>
<path style="fill:#FF7C11;" d="M382.711,316.75L382.711,316.75c-8.482,0-15.359-6.876-15.359-15.359V191.575
	c0-8.482,6.876-15.359,15.359-15.359l0,0c8.482,0,15.359,6.876,15.359,15.359v109.816C398.07,309.874,391.193,316.75,382.711,316.75
	z"/>
<polygon style="fill:#FF8700;" points="224.514,352.46 201.476,352.46 201.476,401.608 178.054,401.608 178.054,424.646 
	198.207,424.646 187.306,445.209 207.662,456 224.557,424.646 "/>
<polygon style="fill:#FF7C11;" points="287.486,352.46 310.524,352.46 310.524,401.608 333.946,401.608 333.946,424.646 
	313.793,424.646 324.694,445.209 304.338,456 287.443,424.646 "/>
<g>
</g>
<g>
</g>
<g>
</g>
<g>
</g>
<g>
</g>
<g>
</g>
<g>
</g>
<g>
</g>
<g>
</g>
<g>
</g>
<g>
</g>
<g>
</g>
<g>
</g>
<g>
</g>
<g>
</g>
</svg>
