<?xml version="1.0" encoding="iso-8859-1"?>
<!-- Generator: Adobe Illustrator 19.0.0, SVG Export Plug-In . SVG Version: 6.00 Build 0)  -->
<svg version="1.1" id="Capa_1" xmlns="http://www.w3.org/2000/svg" xmlns:xlink="http://www.w3.org/1999/xlink" x="0px" y="0px"
	 viewBox="0 0 155.301 155.301" style="enable-background:new 0 0 155.301 155.301;" xml:space="preserve">
<g>
	<circle style="fill:#98E2ED;" cx="77.651" cy="77.65" r="77.65"/>
	<g>
		<g>
			<path style="fill:#FFFFFF;" d="M45.72,40.438c0.233-0.065,0.468-0.122,0.707-0.17C46.189,40.316,45.953,40.372,45.72,40.438z"/>
			<path style="fill:#FFFFFF;" d="M46.618,40.231c0.588-0.104,1.189-0.155,1.795-0.161C47.807,40.077,47.207,40.127,46.618,40.231z"
				/>
			<path style="fill:#FFFFFF;" d="M48.558,40.07c0.63,0,1.265,0.045,1.894,0.127C49.822,40.115,49.189,40.071,48.558,40.07z"/>
			<path style="fill:#FFFFFF;" d="M38.736,46.037c0.316-0.39,0.646-0.774,0.987-1.15C39.382,45.263,39.051,45.647,38.736,46.037z"/>
			<path style="fill:#FFFFFF;" d="M39.725,44.884c0.344-0.378,0.698-0.748,1.059-1.105C40.423,44.137,40.069,44.506,39.725,44.884z"
				/>
			<path style="fill:#FFFFFF;" d="M40.788,43.776c0.361-0.357,0.729-0.702,1.099-1.031C41.516,43.075,41.149,43.42,40.788,43.776z"
				/>
			<path style="fill:#FFFFFF;" d="M41.893,42.74c0.371-0.33,0.745-0.645,1.119-0.94C42.638,42.095,42.264,42.41,41.893,42.74z"/>
			<path style="fill:#FFFFFF;" d="M43.951,41.174c0.208-0.118,0.419-0.226,0.634-0.323C44.37,40.948,44.158,41.056,43.951,41.174z"
				/>
			<path style="fill:#FFFFFF;" d="M44.739,40.779c0.266-0.113,0.537-0.211,0.812-0.294C45.276,40.568,45.005,40.666,44.739,40.779z"
				/>
			<path style="fill:#FFFFFF;" d="M43.012,41.799c0.235-0.188,0.481-0.351,0.732-0.505C43.493,41.448,43.247,41.612,43.012,41.799z"
				/>
			<path style="fill:#FFFFFF;" d="M45.409,47.504c2.268-1.438,4.22-1.829,5.071-1.931c-0.122,0.198-0.237,0.4-0.355,0.601
				c1.208-2.063,2.639-3.981,4.265-5.714c-0.16,0.17-0.32,0.34-0.476,0.514c-1.094-0.338-2.267-0.621-3.459-0.777
				C49.606,42.992,47.662,45.387,45.409,47.504z"/>
			<path style="fill:#404040;" d="M43.854,48.636c0.529-0.436,1.321-0.818,1.827-1.14c2.253-2.117,4.317-4.622,5.317-7.373l0,0
				v0.071c-1,0-1.81,0-2.44,0c-0.048,0-0.096,0-0.145,0c-0.606,0-1.207-0.004-1.795,0.1c-0.064,0.011-0.127-0.006-0.191,0.006
				c-0.239,0.047-0.474,0.088-0.707,0.154c-0.057,0.016-0.114,0.023-0.17,0.04c-0.275,0.084-0.545,0.177-0.812,0.29
				c-0.052,0.023-0.103,0.047-0.154,0.07c-0.215,0.097-0.426,0.205-0.634,0.323c-0.069,0.039-0.139,0.078-0.207,0.12
				c-0.25,0.154-0.497,0.317-0.732,0.504c-0.374,0.296-0.748,0.611-1.119,0.941c-0.002,0.002-0.004,0.003-0.006,0.005
				c-0.371,0.33-0.738,0.674-1.099,1.031c-0.001,0.001-0.003,0.002-0.003,0.003c-0.362,0.357-0.716,0.727-1.059,1.105
				c0,0.001-0.002,0.002-0.003,0.003c-0.341,0.376-0.671,0.76-0.987,1.15c-0.002,0.003-0.005,0.007-0.008,0.009l0,0
				C40.082,47.604,41.937,48.477,43.854,48.636z"/>
			<path style="fill:#FFD6BC;" d="M45.409,47.504c-0.507,0.322-1.026,0.696-1.555,1.132c-1.104,0.91-2.234,2.074-3.313,3.599
				c0,0-1.629,2.836,6.49,1.138c0.047-0.164,0.093-0.33,0.144-0.493c0.043-0.143,0.091-0.283,0.137-0.424
				c0.097-0.302,0.198-0.602,0.304-0.899c0.061-0.169,0.121-0.338,0.184-0.506c0.111-0.297,0.228-0.591,0.348-0.884
				c0.057-0.138,0.11-0.278,0.168-0.415c0.165-0.384,0.338-0.764,0.517-1.141c0.087-0.185,0.178-0.366,0.269-0.547
				c0.111-0.221,0.223-0.442,0.339-0.661c0.102-0.194,0.204-0.387,0.311-0.579c0.121-0.219,0.247-0.435,0.374-0.65
				c0.118-0.201,0.233-0.403,0.355-0.601C49.629,45.675,47.677,46.066,45.409,47.504z"/>
			<path style="fill:#FFFFFF;" d="M112.289,41.799c-2.964-2.353-7.125-1.941-10.568-0.927c1.333,1.473,2.533,3.068,3.575,4.771
				c1.81,0.321,5.922,1.586,9.463,6.591c0,0,1.575,2.733-6.029,1.233c0.324,1.131,0.586,2.288,0.784,3.467
				c1.491,0.112,3.157,0.118,5.014-0.035C124.552,56.079,118.273,46.548,112.289,41.799z"/>
			<path style="fill:#FFD6BC;" d="M114.759,52.235c-3.541-5.005-7.654-6.27-9.463-6.591c1.477,2.414,2.639,5.042,3.434,7.825
				C116.334,54.968,114.759,52.235,114.759,52.235z"/>
			<path style="fill:#FFFFFF;" d="M101.097,40.203c1.996-1.239,5.361-3.922,6.581-8.448c1.78-6.598-0.021-8.594-1.62-8.899
				c-1.338-0.256-4.301,10.075-10.986,12.425C97.279,36.673,99.301,38.329,101.097,40.203z"/>
			<path style="fill:#404040;" d="M107.573,108.513c1.905,6.109,8.144-0.591,10.076-4.693
				C117.649,103.82,105.667,102.405,107.573,108.513z"/>
			<path style="fill:#404040;" d="M65.078,119.277c-2.745,0-5.307,1.427-6.688,3.575c-0.778,1.211-1.392,2.647-1.392,4.193v0.148h16
				v-0.148c0-1.546-0.533-2.983-1.312-4.193C70.304,120.704,67.822,119.277,65.078,119.277z"/>
			<path style="fill:#404040;" d="M89.488,119.277c-2.985,0-5.435,1.685-6.734,4.155c-0.569,1.08-0.756,2.308-0.756,3.614v0.148h15
				v-0.148c0-2.139-0.736-4.076-2.136-5.481C93.456,120.152,91.639,119.277,89.488,119.277z"/>
			<path style="fill:#FFFFFF;" d="M52.737,92.643c-0.072-0.413-0.132-0.831-0.185-1.25C52.603,91.813,52.665,92.229,52.737,92.643z"
				/>
			<path style="fill:#FFFFFF;" d="M98.908,94.236c-0.597-0.692-1.041-1.485-1.408-2.323c-2.591,4.747-7.407,3.732-11.963,2.132
				c-0.406,2.647-0.427,5.456-1.184,7.858c-1.072,3.404-3.859,1.942-6.053,0.46c-1.381-0.933-2.731-2.006-3.831-3.261
				c-0.558-0.639-0.708-1.662-0.72-2.77c0.032-0.156,0.057-0.313,0.073-0.47c0.04-0.388,0.029-0.79-0.02-1.19
				c0.015-0.269,0.028-0.531,0.041-0.789c1.25,0.149,2.519,0.234,3.809,0.234c2.173,0,4.293-0.219,6.344-0.633
				c-2.528-0.943-4.882-1.883-6.611-1.883c-4.79,0-14.372,7.213-19.166,1.689c-1.567,0.609-3.302,0.908-5.182,0.814
				c-0.106-0.449,0.027-0.904-0.055-1.361c0.815,4.584,2.018,8.739,6.018,12.113v17.995c2-2.148,3.756-3.575,6.5-3.575
				c2.744,0,4.5,1.427,6.5,3.575v-9.998c2,0.474,3.956,0.731,6.038,0.731c1.699,0,2.962-0.17,4.962-0.49v10.336
				c2-2.47,3.699-4.155,6.685-4.155c2.151,0,5.315,0.875,5.315,2.288v-14.87c3-2.765,5.201-6.222,6.551-10.111
				C100.507,96.633,99.446,94.862,98.908,94.236z M67.34,111.388c-4.41-1.978-8.138-5.191-10.776-9.19
				c1.207-1.557,3.361-3.539,4.832-1.962c0.897,0.962,1.399,2.27,2.292,3.266c0.937,1.045,2.089,1.698,3.274,2.411
				C68.469,106.818,69.214,110.541,67.34,111.388z M82.057,113.193c0.003-0.063,0.013-0.121,0.009-0.187
				c-0.012-0.249,0.02-0.506,0.079-0.77c0.227-0.376,0.412-0.769,0.544-1.16c0.039-0.116,0.068-0.23,0.098-0.345
				c2.485-4.032,10.617-8.264,12.6-4.415C91.815,109.829,87.204,112.288,82.057,113.193z"/>
			<path style="fill:#FFFFFF;" d="M101.855,95.646c-0.068,0.224-0.143,0.445-0.216,0.666
				C101.713,96.091,101.787,95.87,101.855,95.646z"/>
			<path style="fill:#FFFFFF;" d="M102.69,91.854c-0.023,0.166-0.046,0.332-0.073,0.496C102.644,92.185,102.667,92.02,102.69,91.854
				z"/>
			<path style="fill:#FFFFFF;" d="M52.398,89.717c-0.027-0.472-0.042-0.947-0.042-1.426C52.356,88.77,52.372,89.245,52.398,89.717z"
				/>
			<path style="fill:#FFFFFF;" d="M102.249,94.18c-0.081,0.337-0.168,0.669-0.261,0.999
				C102.081,94.849,102.168,94.517,102.249,94.18z"/>
			<path style="fill:#FFFFFF;" d="M102.498,93.015c-0.031,0.166-0.061,0.333-0.096,0.499
				C102.437,93.348,102.467,93.181,102.498,93.015z"/>
			<path style="fill:#FFFFFF;" d="M102.915,89.493c-0.006,0.133-0.017,0.265-0.025,0.397
				C102.898,89.758,102.909,89.626,102.915,89.493z"/>
			<path style="fill:#FFFFFF;" d="M102.829,90.682c-0.015,0.157-0.033,0.313-0.049,0.47
				C102.797,90.996,102.815,90.839,102.829,90.682z"/>
			<path style="fill:#FFFFFF;" d="M52.524,91.17c-0.044-0.384-0.077-0.772-0.103-1.161C52.446,90.399,52.48,90.786,52.524,91.17z"/>
			<path style="fill:#404040;" d="M66.962,105.913c-1.186-0.713-2.337-1.366-3.274-2.411c-0.893-0.996-1.395-2.304-2.292-3.266
				c-1.47-1.577-3.625,0.405-4.832,1.962c2.639,3.998,6.367,7.212,10.776,9.19C69.214,110.541,68.469,106.818,66.962,105.913z"/>
			<path style="fill:#404040;" d="M58.217,93.291c-1.061-1.223-1.891-3.06-2.379-5.746c-0.149-0.827-0.241-1.605-0.292-2.349
				c-0.888-0.855-1.73-1.754-2.514-2.706c-0.438,1.864-0.676,3.803-0.676,5.8c0,0.479,0.016,0.955,0.042,1.426
				c0.006,0.099,0.016,0.195,0.022,0.293c0.026,0.389,0.059,0.777,0.103,1.161c0.009,0.074,0.019,0.148,0.028,0.222
				c0.053,0.419,0.113,0.837,0.185,1.25c0.006,0.034,0.012,0.067,0.018,0.101c0.082,0.457,0.175,0.912,0.281,1.361
				C54.915,94.2,56.65,93.901,58.217,93.291z"/>
			<path style="fill:#404040;" d="M77.651,94.119c-1.29,0-2.559-0.085-3.809-0.234c-0.012,0.258-0.026,0.521-0.041,0.789
				c0.049,0.4,0.06,0.802,0.02,1.19c-0.016,0.158-0.041,0.314-0.073,0.47c0.012,1.108,0.162,2.13,0.72,2.77
				c1.1,1.255,2.45,2.328,3.831,3.261c2.194,1.482,4.981,2.943,6.053-0.46c0.757-2.402,0.778-5.211,1.184-7.858
				c-0.52-0.182-1.034-0.37-1.542-0.56C81.944,93.9,79.823,94.119,77.651,94.119z"/>
			<path style="fill:#404040;" d="M99.172,85.753c-0.057,0.577-0.13,1.167-0.244,1.792c-0.331,1.821-0.818,3.251-1.428,4.368
				c0.367,0.838,0.81,1.436,1.408,2.128c0.539,0.625,1.597,2.152,2.639,2.152c0.002,0,0.002,0,0.004,0
				c0.031,0,0.058,0.014,0.088-0.077c0.074-0.221,0.148-0.344,0.216-0.568c0.047-0.153,0.089-0.262,0.132-0.418
				c0.093-0.33,0.181-0.639,0.261-0.975c0.053-0.221,0.106-0.43,0.153-0.653c0.035-0.166,0.064-0.328,0.096-0.494
				c0.043-0.221,0.083-0.439,0.119-0.662c0.027-0.165,0.05-0.329,0.073-0.495c0.033-0.233,0.063-0.466,0.09-0.701
				c0.017-0.156,0.035-0.313,0.049-0.47c0.025-0.262,0.043-0.526,0.06-0.792c0.008-0.132,0.02-0.264,0.025-0.397
				c0.019-0.398,0.03-0.8,0.03-1.203c0-1.997-0.238-3.937-0.676-5.8C101.315,83.65,100.279,84.74,99.172,85.753z"/>
			<path style="fill:#404040;" d="M82.787,110.731c-0.03,0.115-0.06,0.229-0.098,0.345c-0.132,0.391-0.317,0.783-0.544,1.16
				c-0.059,0.264-0.091,0.521-0.079,0.77c0.004,0.065-0.005,0.124-0.009,0.187c5.147-0.905,9.758-3.363,13.33-6.877
				C93.404,102.467,85.272,106.7,82.787,110.731z"/>
			<path style="fill:#FFFFFF;" d="M46.502,69.013c-0.092-0.422-0.171-0.85-0.246-1.279C46.33,68.163,46.411,68.59,46.502,69.013z"/>
			<path style="fill:#FFFFFF;" d="M46.185,67.339c-0.066-0.408-0.119-0.821-0.169-1.234C46.066,66.518,46.12,66.931,46.185,67.339z"
				/>
			<path style="fill:#FFFFFF;" d="M45.812,60.772c0.006-0.141,0.015-0.282,0.024-0.423C45.827,60.491,45.819,60.631,45.812,60.772z"
				/>
			<path style="fill:#FFFFFF;" d="M45.92,59.245c0.012-0.13,0.022-0.26,0.037-0.391C45.942,58.985,45.932,59.115,45.92,59.245z"/>
			<path style="fill:#FFFFFF;" d="M46.136,57.441c0.013-0.086,0.03-0.171,0.043-0.256C46.166,57.27,46.149,57.355,46.136,57.441z"/>
			<path style="fill:#FFFFFF;" d="M45.822,63.953c-0.03-0.566-0.047-1.136-0.047-1.709C45.775,62.817,45.792,63.386,45.822,63.953z"
				/>
			<path style="fill:#FFFFFF;" d="M47.404,72.302c-0.154-0.464-0.297-0.935-0.431-1.409C47.106,71.368,47.25,71.837,47.404,72.302z"
				/>
			<path style="fill:#FFFFFF;" d="M46.909,70.669c-0.122-0.443-0.232-0.892-0.335-1.343C46.677,69.778,46.788,70.226,46.909,70.669z
				"/>
			<path style="fill:#FFFFFF;" d="M91.245,33.409c-4.124-1.948-8.731-3.041-13.594-3.041c-4.711,0-9.179,1.03-13.203,2.865
				c2.194,8.139-2.475,18.353-5.323,25.609c-2.397,6.106-5.747,12.116-10.476,16.626c1.158,2.535,2.631,4.896,4.383,7.022
				c0.783,0.952,1.626,1.852,2.514,2.706c-0.87-12.588,11.92-13.525,21.838-13.525c10.061,0,23.076,0.966,21.788,14.081
				c1.107-1.014,2.143-2.103,3.097-3.263c1.821-2.211,3.343-4.676,4.521-7.327c-4.568-4.475-7.834-10.347-10.179-16.321
				C93.783,51.638,89.164,41.52,91.245,33.409z M67.917,67.034c-2.79-0.1-4.97-2.441-4.869-5.231c0.1-2.788,2.441-4.968,5.23-4.869
				c2.788,0.1,4.969,2.441,4.868,5.231C73.046,64.953,70.706,67.132,67.917,67.034z M82.155,62.165
				c-0.101-2.789,2.08-5.131,4.868-5.231c2.789-0.099,5.129,2.081,5.23,4.869c0.1,2.79-2.08,5.131-4.87,5.231
				C84.595,67.132,82.255,64.953,82.155,62.165z"/>
			<path style="fill:#FFFFFF;" d="M47.986,73.905c-0.19-0.482-0.368-0.971-0.535-1.464C47.617,72.935,47.796,73.423,47.986,73.905z"
				/>
			<path style="fill:#FFFFFF;" d="M48.649,75.468c-0.226-0.495-0.438-0.996-0.64-1.503C48.211,74.473,48.424,74.974,48.649,75.468z"
				/>
			<path style="fill:#FFFFFF;" d="M45.958,65.651c-0.045-0.415-0.075-0.834-0.103-1.253C45.884,64.817,45.914,65.236,45.958,65.651z
				"/>
			<path style="fill:#FFFFFF;" d="M47.031,53.373c-8.119,1.699-6.49-1.138-6.49-1.138c1.079-1.525,2.209-2.689,3.313-3.599
				c-1.918-0.159-3.773-1.032-5.127-2.59c-3.82,4.723-5.473,10.238,2.046,10.855c2.046,0.168,3.852,0.139,5.455-0.008
				C46.43,55.696,46.699,54.521,47.031,53.373z"/>
			<path style="fill:#FFFFFF;" d="M47.801,51.051c-0.063,0.168-0.124,0.337-0.184,0.506C47.677,51.388,47.738,51.219,47.801,51.051z
				"/>
			<path style="fill:#FFFFFF;" d="M47.313,52.457c-0.046,0.141-0.094,0.281-0.137,0.424C47.219,52.738,47.267,52.598,47.313,52.457z
				"/>
			<path style="fill:#FFFFFF;" d="M48.317,49.752c-0.058,0.137-0.111,0.276-0.168,0.415C48.206,50.029,48.259,49.889,48.317,49.752z
				"/>
			<path style="fill:#FFFFFF;" d="M49.752,46.825c-0.106,0.192-0.208,0.385-0.311,0.579C49.543,47.21,49.645,47.017,49.752,46.825z"
				/>
			<path style="fill:#FFFFFF;" d="M49.102,48.064c-0.091,0.182-0.182,0.363-0.269,0.547C48.921,48.427,49.011,48.246,49.102,48.064z
				"/>
			<path style="fill:#FFFFFF;" d="M64.437,33.237c-1.365,0.622-2.677,1.338-3.93,2.14c-6.883-2.156-9.908-12.781-11.265-12.521
				c-1.599,0.305-3.4,2.301-1.62,8.899c1.28,4.746,4.912,7.458,6.855,8.611C57.288,37.392,60.665,34.958,64.437,33.237z"/>
			<path style="fill:#404040;" d="M64.447,33.233L64.447,33.233c-0.004,0.001-0.007,0.002-0.01,0.004
				c-3.772,1.721-7.149,4.155-9.96,7.129c-0.029,0.031-0.058,0.063-0.087,0.094c-1.625,1.733-3.057,3.651-4.265,5.714
				c-0.127,0.215-0.253,0.431-0.374,0.65c-0.106,0.192-0.208,0.385-0.311,0.579c-0.116,0.218-0.228,0.439-0.339,0.661
				c-0.091,0.182-0.182,0.363-0.269,0.547c-0.179,0.376-0.352,0.756-0.517,1.141c-0.058,0.137-0.111,0.276-0.168,0.415
				c-0.12,0.292-0.237,0.587-0.348,0.884c-0.063,0.168-0.124,0.337-0.184,0.506c-0.106,0.298-0.208,0.598-0.304,0.899
				c-0.046,0.141-0.094,0.281-0.137,0.424c-0.051,0.163-0.097,0.329-0.144,0.493c-0.333,1.148-0.601,2.323-0.804,3.52
				c-0.016,0.097-0.033,0.194-0.049,0.292c-0.013,0.085-0.03,0.17-0.043,0.256c-0.071,0.468-0.13,0.94-0.18,1.414
				c-0.014,0.13-0.024,0.261-0.037,0.391c-0.034,0.367-0.063,0.735-0.083,1.105c-0.009,0.141-0.018,0.282-0.024,0.423
				c-0.022,0.488-0.037,0.978-0.037,1.471c0,0.573,0.017,1.143,0.047,1.709c0.008,0.149,0.023,0.296,0.034,0.445
				c0.028,0.42,0.058,0.839,0.103,1.253c0.017,0.152,0.039,0.303,0.058,0.454c0.05,0.413,0.103,0.826,0.169,1.234
				c0.021,0.132,0.048,0.263,0.071,0.395c0.075,0.429,0.154,0.856,0.246,1.279c0.023,0.105,0.048,0.209,0.072,0.313
				c0.103,0.451,0.213,0.9,0.335,1.343c0.02,0.075,0.042,0.15,0.064,0.224c0.133,0.474,0.276,0.944,0.431,1.409
				c0.016,0.046,0.031,0.092,0.047,0.138c0.167,0.494,0.345,0.982,0.535,1.464c0.008,0.021,0.016,0.041,0.024,0.061
				c0.201,0.507,0.414,1.008,0.64,1.503l0,0l0,0c4.729-4.51,8.079-10.52,10.476-16.626C61.973,51.585,66.641,41.372,64.447,33.233z"
				/>
			<path style="fill:#404040;" d="M105.296,45.644c-1.042-1.703-2.242-3.299-3.575-4.771c-0.205-0.226-0.412-0.45-0.624-0.67
				c-1.796-1.874-3.818-3.529-6.024-4.921c-1.209-0.764-2.473-1.451-3.786-2.049c-0.016,0.059-0.028,0.119-0.042,0.177
				c-2.081,8.111,2.538,18.229,5.365,25.433c2.345,5.974,5.611,11.846,10.179,16.321c0.101,0.099,0.194,0.207,0.296,0.305
				c1.841-4.029,2.874-8.506,2.874-13.225c0-1.81-0.156-3.581-0.446-5.308c-0.198-1.18-0.46-2.336-0.784-3.467
				C107.935,50.687,106.773,48.058,105.296,45.644z"/>
			<path style="fill:#404040;" d="M92.254,61.803c-0.101-2.788-2.441-4.968-5.23-4.869c-2.788,0.1-4.968,2.441-4.868,5.231
				c0.099,2.788,2.44,4.968,5.229,4.869C90.174,66.934,92.353,64.592,92.254,61.803z M87.158,60.289
				c0.995,0.035,1.773,0.871,1.739,1.867c-0.011,0.321-0.114,0.616-0.271,0.873c-0.29-0.798-0.985-1.474-2.039-1.511
				c-0.556-0.02-0.98,0.143-1.282,0.413C85.392,60.982,86.196,60.254,87.158,60.289z"/>
			<path style="fill:#FFFFFF;" d="M88.626,63.028c0.156-0.256,0.26-0.551,0.271-0.873c0.035-0.996-0.744-1.832-1.739-1.867
				c-0.961-0.035-1.766,0.693-1.853,1.641c0.302-0.269,0.726-0.432,1.282-0.413C87.641,61.554,88.336,62.23,88.626,63.028z"/>
			<path style="fill:#404040;" d="M73.145,62.165c0.101-2.789-2.08-5.131-4.868-5.231c-2.789-0.099-5.129,2.081-5.23,4.869
				c-0.101,2.79,2.079,5.131,4.869,5.231C70.706,67.132,73.046,64.953,73.145,62.165z M68.143,60.289
				c0.961-0.035,1.766,0.693,1.853,1.641c-0.302-0.269-0.726-0.432-1.282-0.413c-1.053,0.037-1.748,0.713-2.038,1.511
				c-0.157-0.256-0.26-0.551-0.271-0.873C66.369,61.159,67.148,60.324,68.143,60.289z"/>
			<path style="fill:#FFFFFF;" d="M68.714,61.517c0.557-0.02,0.98,0.143,1.282,0.413c-0.087-0.947-0.891-1.675-1.853-1.641
				c-0.996,0.035-1.774,0.871-1.739,1.867c0.011,0.321,0.114,0.616,0.271,0.873C66.965,62.23,67.66,61.554,68.714,61.517z"/>
			<path style="fill:#FFD6BC;" d="M58.217,93.291c4.794,5.524,14.376-1.689,19.166-1.689c1.729,0,4.084,0.94,6.611,1.883
				c0.508,0.19,1.022,0.378,1.542,0.56c4.557,1.6,9.372,2.615,11.963-2.132c0.609-1.116,1.097-2.547,1.428-4.368
				c0.113-0.625,0.187-1.216,0.244-1.792c1.288-13.115-11.728-14.081-21.788-14.081c-9.917,0-22.708,0.937-21.838,13.525
				c0.052,0.744,0.143,1.521,0.292,2.349C56.326,90.232,57.156,92.069,58.217,93.291z M89.835,80.068
				c1.33,0,2.407,1.077,2.407,2.407c0,1.329-1.078,2.407-2.407,2.407c-1.33,0-2.407-1.078-2.407-2.407
				C87.428,81.146,88.506,80.068,89.835,80.068z M63.703,80.068c1.33,0,2.407,1.077,2.407,2.407c0,1.329-1.077,2.407-2.407,2.407
				c-1.329,0-2.407-1.078-2.407-2.407C61.296,81.146,62.374,80.068,63.703,80.068z"/>
			<circle style="fill:#E27E54;" cx="63.703" cy="82.475" r="2.407"/>
			<circle style="fill:#E27E54;" cx="89.835" cy="82.475" r="2.407"/>
		</g>
		<path style="opacity:0.3;fill:#FFFFFF;" d="M114.528,56.901c10.024-0.823,3.745-10.353-2.239-15.102
			c-2.964-2.353-7.125-1.941-10.568-0.927c-0.205-0.226-0.412-0.45-0.624-0.67c1.996-1.239,5.361-3.922,6.581-8.448
			c1.78-6.598-0.021-8.594-1.62-8.899c-1.338-0.256-4.301,10.075-10.986,12.425c-1.209-0.764-2.473-1.451-3.786-2.049
			c-0.016,0.059-0.028,0.119-0.042,0.177c-4.124-1.948-8.731-3.041-13.594-3.041c-0.027,0-0.053,0.002-0.079,0.002v83.213
			c0.026,0,0.052,0.002,0.079,0.002c1.699,0,3.358-0.17,4.964-0.49v10.336c-0.569,1.08-0.688,2.308-0.688,3.614v1.161h15.129v-1.161
			c0-2.139-0.664-4.076-2.063-5.481v-14.87c0.359-0.339,0.709-0.689,1.049-1.048c1.647,3.063,3.743,5.063,6.166,5.846
			c0.729,0.235,1.476,0.352,2.232,0.352c1.451,0,2.937-0.434,4.401-1.284c2.591,1.902,7.196-3.319,8.808-6.74
			c0,0-11.507-1.355-10.164,4.347c-1.558,0.913-3.047,1.154-4.432,0.708c-1.936-0.626-3.704-2.569-5.081-5.529
			c1.515-2.041,2.725-4.023,3.575-6.773h0.004c0.031,0,0.058-0.176,0.088-0.267c0.074-0.221,0.148-0.438,0.216-0.663
			c0.047-0.154,0.089-0.309,0.132-0.465c0.093-0.33,0.181-0.663,0.261-0.999c0.053-0.221,0.106-0.442,0.153-0.666
			c0.035-0.166,0.064-0.334,0.096-0.5c0.043-0.221,0.083-0.442,0.119-0.664c0.027-0.165,0.05-0.33,0.073-0.496
			c0.033-0.233,0.063-0.467,0.09-0.702c0.017-0.156,0.035-0.313,0.049-0.47c0.025-0.262,0.043-0.527,0.06-0.792
			c0.008-0.132,0.02-0.264,0.025-0.397c0.019-0.398,0.03-0.8,0.03-1.203c0-1.997-0.238-3.937-0.676-5.8
			c1.821-2.211,3.343-4.676,4.521-7.327c0.101,0.099,0.194,0.207,0.296,0.305c1.841-4.029,2.874-8.506,2.874-13.225
			c0-1.81-0.156-3.581-0.446-5.308C111.005,57.048,112.671,57.054,114.528,56.901z"/>
	</g>
</g>
<g>
</g>
<g>
</g>
<g>
</g>
<g>
</g>
<g>
</g>
<g>
</g>
<g>
</g>
<g>
</g>
<g>
</g>
<g>
</g>
<g>
</g>
<g>
</g>
<g>
</g>
<g>
</g>
<g>
</g>
</svg>
