<?xml version="1.0" encoding="iso-8859-1"?>
<!-- Generator: Adobe Illustrator 19.0.0, SVG Export Plug-In . SVG Version: 6.00 Build 0)  -->
<svg version="1.1" id="Capa_1" xmlns="http://www.w3.org/2000/svg" xmlns:xlink="http://www.w3.org/1999/xlink" x="0px" y="0px"
	 viewBox="0 0 512 512" style="enable-background:new 0 0 512 512;" xml:space="preserve">
<circle style="fill:#7AE5FE;" cx="256" cy="256" r="256"/>
<path style="fill:#00BED2;" d="M511.548,271.055l-98.002-98.003l-1.891,7.753l-96.58-96.58L98.73,360.55l46.253,46.253
	l-13.679,34.04l63.866,63.866C214.67,509.462,235.037,512,256,512C392.33,512,503.753,405.43,511.548,271.055z"/>
<path style="fill:#0A8F2C;" d="M362.25,384.481L362.25,384.481c-36.646,0-66.353-29.707-66.353-66.353V215.141
	c0-36.645,29.707-66.353,66.353-66.353l0,0c36.645,0,66.353,29.707,66.353,66.353v102.988
	C428.603,354.774,398.896,384.481,362.25,384.481z"/>
<rect x="343.81" y="290.72" style="fill:#6D3524;" width="36.891" height="150.13"/>
<path style="fill:#44C053;" d="M158.188,384.481L158.188,384.481c-36.646,0-66.353-29.707-66.353-66.353V215.141
	c0-36.645,29.707-66.353,66.353-66.353l0,0c36.645,0,66.353,29.707,66.353,66.353v102.988
	C224.541,354.774,194.834,384.481,158.188,384.481z"/>
<rect x="131.3" y="290.72" style="fill:#854830;" width="36.891" height="150.13"/>
<path style="fill:#70D975;" d="M256,367.509L256,367.509c-47.681,0-86.333-38.653-86.333-86.333v-134
	c0-47.681,38.653-86.333,86.333-86.333l0,0c47.681,0,86.333,38.653,86.333,86.333v134C342.333,328.857,303.681,367.509,256,367.509z
	"/>
<path style="fill:#44C053;" d="M256,60.843L256,60.843c-0.016,0-0.032,0.001-0.048,0.001v306.664c0.016,0,0.031,0.001,0.048,0.001
	l0,0c47.681,0,86.333-38.653,86.333-86.333v-134C342.333,99.495,303.681,60.843,256,60.843z"/>
<rect x="232" y="245.51" style="fill:#7A3817;" width="48" height="195.33"/>
<rect x="255.95" y="245.51" style="fill:#562611;" width="24.05" height="195.33"/>
<g>
</g>
<g>
</g>
<g>
</g>
<g>
</g>
<g>
</g>
<g>
</g>
<g>
</g>
<g>
</g>
<g>
</g>
<g>
</g>
<g>
</g>
<g>
</g>
<g>
</g>
<g>
</g>
<g>
</g>
</svg>
