<?xml version="1.0" encoding="iso-8859-1"?>
<!-- Generator: Adobe Illustrator 19.0.0, SVG Export Plug-In . SVG Version: 6.00 Build 0)  -->
<svg version="1.1" id="Layer_1" xmlns="http://www.w3.org/2000/svg" xmlns:xlink="http://www.w3.org/1999/xlink" x="0px" y="0px"
	 viewBox="0 0 512 512" style="enable-background:new 0 0 512 512;" xml:space="preserve">
<circle style="fill:#90DFAA;" cx="256" cy="256" r="256"/>
<path style="fill:#2C9984;" d="M437.019,437.019c42.744-42.744,67.196-96.844,73.39-152.588L396.643,170.667l-2.243,0.586
	l-29.649-29.137L245.083,281.859l-98.135,79.76L294.429,509.1C346.617,501.22,396.836,477.203,437.019,437.019z"/>
<g>
	<path style="fill:#C1321F;" d="M353.689,137.261c-1.002,0.071-1.964,0.262-2.884,0.541c-2.962-5.604-9.023-9.242-15.753-8.771
		c-6.73,0.471-12.226,4.915-14.379,10.878c-0.952-0.148-1.931-0.205-2.931-0.134c-7.17,0.502-12.574,6.72-12.073,13.89
		c0.502,7.17,6.72,12.574,13.89,12.073c3.977-0.278,7.408-2.32,9.592-5.304c2.477,1.174,5.279,1.755,8.208,1.55
		c2.931-0.205,5.622-1.171,7.913-2.677c2.579,2.651,6.258,4.196,10.237,3.917c7.17-0.502,12.574-6.72,12.073-13.89
		C367.075,142.165,360.857,136.761,353.689,137.261z"/>
	<path style="fill:#C1321F;" d="M383.714,213.764c0,5.237-4.244,9.481-9.482,9.481s-9.481-4.244-9.481-9.481
		c0-5.237,4.244-28.444,9.481-28.444S383.714,208.527,383.714,213.764z"/>
</g>
<path style="fill:#FFFFFF;" d="M396.643,170.667c0,0-76.14-62.061-126.707,28.444S99.269,227.556,99.269,227.556
	s-2.424,176.052,142.222,164.633C394.345,380.121,317.631,206.438,396.643,170.667z"/>
<path style="fill:#E6F3FF;" d="M269.936,199.111c-11.407,20.418-26.358,33.052-42.667,40.405v153.183
	c4.58,0.031,9.309-0.122,14.222-0.51c152.854-12.067,76.14-185.751,155.152-221.522
	C396.643,170.667,320.503,108.606,269.936,199.111z"/>
<path style="fill:#F9B54C;" d="M396.643,170.667c0,0-8.852-7.211-22.519-13.133l2.288,28.708
	C381.731,179.757,388.313,174.439,396.643,170.667z"/>
<path style="fill:#FFD15D;" d="M269.936,256c0,0-27.87,44.822-113.778,28.444c0,0,21.261,71.542,85.333,56.889
	S298.093,263.758,269.936,256z"/>
<path style="fill:#F9B54C;" d="M269.936,256c0,0-11.567,18.532-42.667,27.405v59.857c4.487-0.169,9.225-0.788,14.222-1.931
	C305.564,326.68,298.093,263.758,269.936,256z"/>
<circle style="fill:#324A5E;" cx="341.04" cy="171.529" r="5.172"/>
<g>
</g>
<g>
</g>
<g>
</g>
<g>
</g>
<g>
</g>
<g>
</g>
<g>
</g>
<g>
</g>
<g>
</g>
<g>
</g>
<g>
</g>
<g>
</g>
<g>
</g>
<g>
</g>
<g>
</g>
</svg>
