<?xml version="1.0" encoding="iso-8859-1"?>
<!-- Generator: Adobe Illustrator 19.0.0, SVG Export Plug-In . SVG Version: 6.00 Build 0)  -->
<svg version="1.1" id="Capa_1" xmlns="http://www.w3.org/2000/svg" xmlns:xlink="http://www.w3.org/1999/xlink" x="0px" y="0px"
	 viewBox="0 0 155.301 155.301" style="enable-background:new 0 0 155.301 155.301;" xml:space="preserve">
<g>
	<circle style="fill:#98E2ED;" cx="77.65" cy="77.65" r="77.65"/>
	<g>
		<g>
			<path style="fill:#FFBDA2;" d="M106.708,45.068c0.676,0.032,1.371-0.163,1.957-0.628c2.051-1.621,1.53-6.233,3.136-7.963
				c0,0-6.725,0.472-7.654,4.257c-0.031,0.129-0.047,0.249-0.068,0.372C105.046,42.359,105.925,43.683,106.708,45.068z"/>
			<path style="fill:#FFBDA2;" d="M43.608,37.591c1.741,1.593,1.6,6.232,3.774,7.681c0.332,0.221,0.689,0.356,1.053,0.431
				c0.89-1.657,1.92-3.228,3.068-4.7C50.088,37.518,43.608,37.591,43.608,37.591z"/>
			<path style="fill:#FFD6BC;" d="M114.256,101.311c-1.757-1.073-3.834-1.351-5.848-0.813c-0.386-0.366-0.84-0.694-1.36-0.982
				c-0.977-0.539-2.087-0.859-3.189-0.979c-0.191,0.448-0.395,0.89-0.608,1.325c1.072,0.059,2.194,0.341,3.133,0.858
				c0.168,0.092,0.348,0.203,0.531,0.335c-1.659,0.802-2.896,2.055-3.116,3.181c-0.37,1.893,0.985,3.434,2.512,3.829
				c0.244,0.063,0.498,0.098,0.754,0.098c1.051,0,2.12-0.568,2.575-1.973c0.545-1.681,0.433-3.222-0.288-4.493
				c1.175-0.207,2.666-0.142,4.188,0.788c0.325,0.198,0.748,0.095,0.945-0.229C114.683,101.932,114.581,101.509,114.256,101.311z
				 M108.332,105.765c-0.379,1.167-1.299,1.066-1.677,0.968c-0.91-0.235-1.722-1.135-1.507-2.231
				c0.104-0.533,0.979-1.604,2.602-2.316c0.066-0.03,0.138-0.06,0.21-0.089C108.544,102.935,108.864,104.124,108.332,105.765z"/>
			<path style="fill:#FFD6BC;" d="M65.479,118.437c-2.744,0-5.507,1.426-6.89,3.574c-0.778,1.211-1.592,2.647-1.592,4.194v0.988
				h7.47l1.012-3.954l1.761,3.954h5.758v-0.988c0-1.547-0.333-2.983-1.11-4.194C70.505,119.862,68.225,118.437,65.479,118.437z"/>
			<path style="fill:#FFBDA2;" d="M106.107,87.45c0-2.504-0.326-4.932-0.937-7.245C99.178,88.93,89.134,94.654,77.75,94.654
				c-11.385,0-21.429-5.725-27.422-14.448c-0.609,2.313-0.91,4.74-0.91,7.244c0,8.446,3.58,16.024,9.58,21.221v13.34
				c1-2.149,3.754-3.574,6.5-3.574c2.744,0,5.5,1.426,6.5,3.574v-6.784c2,0.382,3.769,0.582,5.734,0.582
				c1.801,0,2.266-0.175,5.266-0.495v6.328c1-1.939,3.506-3.205,6.088-3.205c2.477,0,4.912,1.163,5.912,2.969v-11.763
				c3-2.623,6.192-5.959,8.056-9.781c0.211-0.436,0.515-0.877,0.706-1.325C105.207,95.13,106.107,91.384,106.107,87.45z"/>
			<path style="fill:#FFD6CD;" d="M77.75,94.654c11.384,0,21.428-5.725,27.421-14.449C108.846,74.858,111,68.383,111,61.402
				c0-3.729-0.623-7.313-1.757-10.661c11.101-6.247,6.866-21.23,6.866-21.23s-0.551,1.28-7.943,1.588
				c-5.582,0.233-8.552,2.988-9.674,4.326c-5.688-4.547-12.894-7.271-20.742-7.271c-7.913,0-15.177,2.767-20.886,7.383
				c-1.161-1.207-4.357-3.831-10.07-3.603c-7.394,0.295-8.047-0.936-8.047-0.936s-2.794,14.236,7.418,20.012
				c-1.076,3.271-1.666,6.762-1.666,10.394c0,6.98,2.154,13.456,5.829,18.804C56.321,88.93,66.365,94.654,77.75,94.654z
				 M77.75,85.738c-9.726,0-17.611-4.927-17.611-11.004c0-6.076,7.886-11.003,17.611-11.003c9.725,0,17.609,4.927,17.609,11.003
				C95.359,80.812,87.475,85.738,77.75,85.738z M111.801,36.478c-1.605,1.729-1.085,6.342-3.136,7.963
				c-0.586,0.465-1.281,0.66-1.957,0.628c-0.783-1.386-1.662-2.709-2.63-3.962c0.021-0.123,0.037-0.243,0.068-0.372
				C105.076,36.949,111.801,36.478,111.801,36.478z M93.287,57.558c0.226-1.838,1.9-3.146,3.742-2.922
				c1.838,0.226,3.146,1.901,2.92,3.74c-0.225,1.84-1.901,3.149-3.74,2.922C94.368,61.073,93.061,59.397,93.287,57.558z
				 M62.212,57.558c0.227,1.84-1.083,3.516-2.922,3.74c-1.839,0.227-3.515-1.082-3.74-2.922c-0.226-1.839,1.082-3.515,2.92-3.74
				C60.312,54.411,61.986,55.72,62.212,57.558z M47.383,45.271c-2.175-1.448-2.033-6.088-3.774-7.681c0,0,6.479-0.073,7.896,3.411
				c-1.149,1.473-2.179,3.043-3.068,4.7C48.072,45.628,47.715,45.492,47.383,45.271z"/>
			<path style="fill:#FF9669;" d="M77.75,63.731c-9.726,0-17.611,4.927-17.611,11.003c0,6.077,7.886,11.004,17.611,11.004
				c9.725,0,17.609-4.927,17.609-11.004C95.359,68.658,87.475,63.731,77.75,63.731z M72.076,78.451
				c-2.053,0-3.717-1.664-3.717-3.716c0-2.053,1.664-3.718,3.717-3.718c2.053,0,3.717,1.665,3.717,3.718
				C75.793,76.787,74.129,78.451,72.076,78.451z M83.424,78.451c-2.055,0-3.717-1.664-3.717-3.716c0-2.053,1.662-3.718,3.717-3.718
				c2.053,0,3.716,1.665,3.716,3.718C87.14,76.787,85.477,78.451,83.424,78.451z"/>
			<circle style="fill:#CF7128;" cx="72.076" cy="74.734" r="3.717"/>
			<circle style="fill:#CF7128;" cx="83.424" cy="74.734" r="3.717"/>
			<path style="fill:#FFFFFF;" d="M96.209,61.298c1.839,0.227,3.516-1.082,3.74-2.922c0.226-1.839-1.082-3.515-2.92-3.74
				c-1.842-0.225-3.517,1.084-3.742,2.922C93.061,59.397,94.368,61.073,96.209,61.298z M94.513,57.708
				c0.144-1.161,1.202-1.988,2.364-1.845c1.163,0.143,1.988,1.2,1.845,2.362c-0.063,0.517-0.308,0.969-0.664,1.297
				c-0.303-0.84-0.999-1.554-2.093-1.688c-0.609-0.074-1.093,0.056-1.46,0.312C94.494,58.002,94.496,57.856,94.513,57.708z"/>
			<path style="fill:#353A42;" d="M95.965,57.834c1.094,0.135,1.79,0.849,2.093,1.688c0.356-0.328,0.602-0.78,0.664-1.297
				c0.144-1.162-0.682-2.22-1.845-2.362c-1.162-0.144-2.221,0.684-2.364,1.845c-0.017,0.148-0.019,0.294-0.008,0.438
				C94.872,57.89,95.355,57.76,95.965,57.834z"/>
			<path style="fill:#FFFFFF;" d="M55.55,58.376c0.226,1.84,1.901,3.149,3.74,2.922c1.839-0.225,3.149-1.9,2.922-3.74
				c-0.226-1.838-1.9-3.146-3.742-2.922C56.632,54.861,55.324,56.537,55.55,58.376z M58.622,55.863
				c1.162-0.144,2.221,0.684,2.362,1.845c0.02,0.148,0.02,0.294,0.01,0.438c-0.367-0.256-0.851-0.386-1.459-0.312
				c-1.095,0.135-1.792,0.849-2.095,1.688c-0.354-0.328-0.601-0.78-0.663-1.297C56.635,57.063,57.459,56.006,58.622,55.863z"/>
			<path style="fill:#353A42;" d="M57.44,59.522c0.303-0.84,1-1.554,2.095-1.688c0.608-0.074,1.092,0.056,1.459,0.312
				c0.01-0.144,0.01-0.289-0.01-0.438c-0.142-1.161-1.2-1.988-2.362-1.845c-1.163,0.143-1.987,1.2-1.845,2.362
				C56.84,58.742,57.086,59.194,57.44,59.522z"/>
			<path style="fill:#FFD6BC;" d="M89.293,118.437c-2.583,0-5.129,1.266-6.541,3.205c-0.934,1.281-1.754,2.855-1.754,4.563v0.988
				h7.284l1.011-3.954l1.762,3.954h4.943v-0.988c0-1.813-0.095-3.478-1.136-4.8C93.438,119.6,91.77,118.437,89.293,118.437z"/>
		</g>
		<path style="opacity:0.3;fill:#FFFFFF;" d="M114.256,101.311c-1.756-1.072-3.831-1.351-5.848-0.813
			c-0.386-0.366-0.84-0.694-1.36-0.982c-0.976-0.539-2.087-0.859-3.189-0.979c1.448-3.406,2.249-7.152,2.249-11.086
			c0-2.504-0.326-4.932-0.937-7.245C108.846,74.858,111,68.383,111,61.402c0-3.729-0.623-7.313-1.757-10.661
			c11.101-6.247,6.866-21.23,6.866-21.23s-0.551,1.28-7.943,1.588c-5.582,0.233-8.552,2.988-9.674,4.326
			c-5.578-4.46-12.619-7.16-20.291-7.263v87.636c1.644-0.027,3.251-0.191,4.814-0.484v6.328c-0.935,1.281-1.376,2.855-1.376,4.563
			v0.724h6.643l1.011-3.953l1.762,3.953h5.714v-0.724c0-1.813-0.333-3.478-1.375-4.8v-11.763c3.295-2.623,5.995-5.959,7.857-9.781
			c1.071,0.059,2.194,0.341,3.133,0.858c0.167,0.092,0.348,0.203,0.532,0.335c-1.66,0.802-2.897,2.055-3.117,3.181
			c-0.371,1.893,0.985,3.434,2.512,3.829c0.244,0.063,0.498,0.098,0.754,0.098c1.052,0,2.12-0.568,2.575-1.973
			c0.545-1.681,0.433-3.222-0.288-4.493c1.174-0.206,2.665-0.142,4.188,0.788c0.323,0.198,0.748,0.095,0.945-0.229
			C114.683,101.932,114.581,101.509,114.256,101.311z M108.332,105.765c-0.379,1.167-1.299,1.066-1.677,0.968
			c-0.91-0.235-1.723-1.135-1.507-2.231c0.104-0.533,0.979-1.604,2.602-2.316c0.066-0.03,0.136-0.06,0.209-0.089
			C108.544,102.935,108.864,104.124,108.332,105.765z"/>
	</g>
</g>
<g>
</g>
<g>
</g>
<g>
</g>
<g>
</g>
<g>
</g>
<g>
</g>
<g>
</g>
<g>
</g>
<g>
</g>
<g>
</g>
<g>
</g>
<g>
</g>
<g>
</g>
<g>
</g>
<g>
</g>
</svg>
