<?xml version="1.0" encoding="iso-8859-1"?>
<!-- Generator: Adobe Illustrator 19.0.0, SVG Export Plug-In . SVG Version: 6.00 Build 0)  -->
<svg version="1.1" id="Layer_1" xmlns="http://www.w3.org/2000/svg" xmlns:xlink="http://www.w3.org/1999/xlink" x="0px" y="0px"
	 viewBox="0 0 512 512" style="enable-background:new 0 0 512 512;" xml:space="preserve">
<circle style="fill:#324A5E;" cx="256" cy="256" r="256"/>
<path style="fill:#2B3B4E;" d="M503.589,321.274L327.542,145.227l-59.756,13.455l-101.016,93.399l65.645,65.645l-105.91,112.037
	l76.797,76.795c17.008,3.56,34.632,5.441,52.698,5.441C374.824,512,474.729,431.038,503.589,321.274z"/>
<path style="fill:#E6F3FF;" d="M200.835,506.022c9.304,2.045,18.792,3.593,28.444,4.594V397.646h-28.444V506.022z"/>
<path style="fill:#CFDBE6;" d="M286.168,510.221c9.656-1.133,19.149-2.794,28.444-4.972V397.646h-28.444V510.221z"/>
<path style="fill:#B5F1F4;" d="M428.391,326.909c0-39.974-38.205-72.378-85.333-72.378c-3.496,0-6.923,0.233-10.309,0.578
	c-14.453-22.554-42.63-37.864-75.024-37.864s-60.571,15.31-75.024,37.864c-3.386-0.345-6.813-0.578-10.309-0.578
	c-47.128,0-85.333,32.404-85.333,72.378c0,18.579,8.261,35.518,21.828,48.333c-0.9,3.943-1.386,8.011-1.386,12.178
	c0,35.185,33.628,63.709,75.112,63.709c3.291,0,6.525-0.198,9.702-0.546c12.895,19.339,37.347,32.401,65.408,32.401
	s52.515-13.062,65.41-32.401c3.179,0.348,6.413,0.546,9.702,0.546c41.484,0,75.112-28.524,75.112-63.709
	c0-4.167-0.486-8.233-1.386-12.178C420.13,362.425,428.391,345.488,428.391,326.909z"/>
<path style="fill:#84DBFF;" d="M428.391,326.908c0-39.974-38.205-72.378-85.333-72.378c-3.496,0-6.923,0.233-10.309,0.579
	c-14.453-22.554-42.63-37.864-75.024-37.864V482.98c28.063,0,52.515-13.062,65.408-32.401c3.179,0.348,6.413,0.546,9.704,0.546
	c41.482,0,75.112-28.524,75.112-63.709c0-4.167-0.486-8.233-1.386-12.178C420.13,362.427,428.391,345.488,428.391,326.908z"/>
<path style="fill:#F4E3C3;" d="M169.512,202.483c-2.358,7.401-5.868,25.535-6.799,41.148c-0.596,10.006,12.641,14.148,17.939,5.641
	c8.258-13.262,15.863-30.039,18.218-37.428c2.593-8.137,2.544-16.589,0.298-24.697c-1.895-6.835-10.114-9.456-15.615-4.977
	C177.031,187.482,172.104,194.348,169.512,202.483z"/>
<path style="fill:#FED8B2;" d="M345.936,202.483c2.358,7.401,5.868,25.535,6.799,41.148c0.596,10.006-12.641,14.148-17.939,5.641
	c-8.258-13.262-15.863-30.039-18.218-37.428c-2.593-8.137-2.544-16.589-0.298-24.697c1.895-6.835,10.114-9.456,15.615-4.977
	C338.416,187.482,343.343,194.348,345.936,202.483z"/>
<path style="fill:#FFFFFF;" d="M187.906,212.935c0-38.56,31.258-54.524,69.818-54.524s69.818,15.965,69.818,54.524
	s-31.258,104.372-69.818,104.372S187.906,251.495,187.906,212.935z"/>
<path style="fill:#E6F3FF;" d="M327.542,212.935c0-38.559-31.258-54.524-69.818-54.524v158.896
	C296.284,317.307,327.542,251.495,327.542,212.935z"/>
<g>
	<circle style="fill:#324A5E;" cx="221.315" cy="242.364" r="4.494"/>
	<circle style="fill:#324A5E;" cx="294.133" cy="242.364" r="4.494"/>
</g>
<path style="fill:#FF80AA;" d="M271.046,286.796c0,2.96-2.408,5.367-5.368,5.367c-2.96,0-5.368-2.407-5.368-5.367v-28.041
	l10.449-10.449l-3.656-3.656l-9.376,9.376l-9.376-9.376l-3.656,3.656l10.449,10.449v28.041c0,2.96-2.407,5.367-5.367,5.367
	c-2.96,0-5.368-2.407-5.368-5.367h-5.172c0,5.811,4.729,10.538,10.54,10.538c3.175,0,6.02-1.417,7.952-3.644
	c1.934,2.227,4.779,3.644,7.952,3.644c5.811,0,10.54-4.727,10.54-10.538H271.046z"/>
<path style="fill:#FF6472;" d="M271.046,286.796c0,2.96-2.408,5.367-5.368,5.367c-2.96,0-5.368-2.407-5.368-5.367v-28.041
	l10.449-10.449l-3.656-3.656l-9.376,9.376v39.662c1.934,2.227,4.779,3.644,7.952,3.644c5.811,0,10.54-4.727,10.54-10.538h-5.172
	V286.796z"/>
<path style="fill:#B5F1F4;" d="M299.96,134.961c-1.731,0-3.427,0.136-5.103,0.338c-7.154-13.16-21.099-22.095-37.133-22.095
	s-29.979,8.933-37.133,22.095c-1.676-0.202-3.372-0.338-5.103-0.338c-23.326,0-42.236,18.91-42.236,42.236
	s18.91,42.236,42.236,42.236c7.702,0,14.9-2.095,21.118-5.696c6.218,3.601,13.415,5.696,21.118,5.696
	c7.702,0,14.9-2.095,21.118-5.696c6.218,3.601,13.415,5.696,21.118,5.696c23.326,0,42.236-18.91,42.236-42.236
	S323.286,134.961,299.96,134.961z"/>
<path style="fill:#84DBFF;" d="M299.96,134.961c-1.731,0-3.427,0.136-5.103,0.338c-7.154-13.16-21.099-22.095-37.133-22.095v106.229
	c7.702,0,14.9-2.095,21.118-5.696c6.218,3.601,13.415,5.696,21.118,5.696c23.326,0,42.236-18.91,42.236-42.236
	S323.286,134.961,299.96,134.961z"/>
<g>
</g>
<g>
</g>
<g>
</g>
<g>
</g>
<g>
</g>
<g>
</g>
<g>
</g>
<g>
</g>
<g>
</g>
<g>
</g>
<g>
</g>
<g>
</g>
<g>
</g>
<g>
</g>
<g>
</g>
</svg>
