<?xml version="1.0" encoding="iso-8859-1"?>
<!-- Generator: Adobe Illustrator 19.0.0, SVG Export Plug-In . SVG Version: 6.00 Build 0)  -->
<svg version="1.1" id="Capa_1" xmlns="http://www.w3.org/2000/svg" xmlns:xlink="http://www.w3.org/1999/xlink" x="0px" y="0px"
	 viewBox="0 0 512.001 512.001" style="enable-background:new 0 0 512.001 512.001;" xml:space="preserve">
<path style="fill:#B4E66E;" d="M377.265,101.115c-0.465-3.301-3.151-5.988-6.452-6.452c-20.985-2.954-43.813,4.168-60.803,21.159
	c-16.99,16.99-24.113,39.818-21.159,60.803c0.465,3.301,3.151,5.988,6.452,6.452c20.985,2.954,43.813-4.168,60.803-21.159
	C373.097,144.927,380.219,122.1,377.265,101.115z"/>
<path style="fill:#A0D755;" d="M377.265,101.115c-0.233-1.651-1.021-3.147-2.163-4.289l-84.088,84.088
	c1.142,1.142,2.639,1.93,4.289,2.163c20.986,2.955,43.813-4.168,60.804-21.159C373.097,144.927,380.219,122.1,377.265,101.115z"/>
<path style="fill:#B4E66E;" d="M170.269,7.717c-3.994,0.379-7.123,3.508-7.502,7.502c-1.469,15.469,4.082,31.973,16.514,44.405
	c12.432,12.432,28.936,17.983,44.405,16.514c3.994-0.379,7.123-3.508,7.502-7.502c1.469-15.469-4.082-31.973-16.514-44.405
	C202.242,11.799,185.739,6.248,170.269,7.717z"/>
<path style="fill:#A0D755;" d="M179.282,59.625c12.432,12.432,28.936,17.983,44.405,16.514c1.997-0.19,3.778-1.067,5.106-2.396
	l-63.631-63.631c-1.329,1.329-2.206,3.109-2.396,5.106C161.297,30.69,166.848,47.193,179.282,59.625z"/>
<path style="fill:#B4E66E;" d="M94.218,137.123c-3.251,0.551-5.875,3.175-6.426,6.426c-5.371,31.69,5.01,66.605,30.807,92.402
	s60.712,36.177,92.402,30.807c3.251-0.551,5.875-3.175,6.426-6.426c5.371-31.69-5.01-66.605-30.807-92.402
	S125.908,131.753,94.218,137.123z"/>
<path style="fill:#A0D755;" d="M118.598,235.951c25.797,25.796,60.712,36.177,92.402,30.807c1.625-0.275,3.094-1.07,4.225-2.201
	L89.993,139.324c-1.131,1.132-1.925,2.6-2.201,4.225C82.422,175.239,92.802,210.154,118.598,235.951z"/>
<path style="fill:#9B735A;" d="M409.628,504.5c-12.375-28.301-40.585-48.098-73.449-48.098c-2.106,0-4.186,0.105-6.243,0.289
	c-4.114,0.367-8.119-0.949-11.42-3.433c-17.413-13.1-39.03-20.906-62.5-20.906s-45.086,7.804-62.5,20.906
	c-3.301,2.483-7.306,3.8-11.42,3.433c-2.057-0.184-4.137-0.289-6.243-0.289c-32.864,0-61.074,19.798-73.449,48.098L409.628,504.5
	L409.628,504.5z"/>
<path style="fill:#8C5F50;" d="M273.321,433.796c-5.627-0.946-11.407-1.443-17.305-1.443c-23.47,0-45.086,7.804-62.5,20.905
	c-3.301,2.483-7.306,3.8-11.42,3.433c-2.057-0.183-4.137-0.289-6.243-0.289c-32.864,0-61.074,19.798-73.449,48.098H206.89
	C218.17,472.642,242.371,446.893,273.321,433.796z"/>
<path d="M432.359,497h-18.01c-14.869-29.372-45.028-48.098-78.186-48.098c-3.206,0-6.564,0.221-10.189,0.672
	c-3.145-2.533-6.436-4.906-9.816-7.077c-3.484-2.238-8.125-1.228-10.363,2.258c-2.238,3.485-1.228,8.125,2.258,10.363
	c3.762,2.416,7.396,5.121,10.8,8.039c1.665,1.426,3.867,2.051,6.037,1.715c4.185-0.653,7.872-0.97,11.274-0.97
	c24.838,0,47.644,12.682,60.906,33.098H114.931c13.261-20.416,36.068-33.098,60.906-33.098c3.402,0,7.089,0.317,11.274,0.97
	c2.167,0.339,4.372-0.289,6.037-1.715c17.533-15.027,39.855-23.304,62.852-23.304c8.55,0,17.03,1.123,25.206,3.336
	c3.999,1.082,8.117-1.281,9.2-5.279s-1.281-8.117-5.279-9.2c-7.053-1.91-14.299-3.115-21.626-3.605V242.506
	c0-15.119,5.886-29.336,16.573-40.03l12.261-12.269c4.018,0.672,8.08,1.004,12.146,1.004c20.691,0,41.467-8.543,56.913-23.99
	c19.537-19.536,28.028-47.595,22.163-73.228c-0.642-2.805-2.833-4.996-5.638-5.638c-25.631-5.867-53.69,2.626-73.228,22.163
	c-18.49,18.491-27.079,44.615-22.973,69.092l-12.255,12.263c-2.149,2.15-4.126,4.425-5.962,6.787v-62.911
	c0-23.328-9.054-45.26-25.494-61.796c3.428-19.475-3.337-40.317-18.045-55.025C204.543,3.509,182.38-3.191,162.117,1.445
	c-2.806,0.642-4.996,2.833-5.638,5.638c-4.636,20.261,2.062,42.425,17.482,57.846c12.189,12.189,28.59,18.929,44.935,18.929
	c2.451,0,4.899-0.169,7.333-0.477l0.987,0.987c13.724,13.724,21.283,31.971,21.283,51.38v106.758v48.899
	c-4.274-7.018-9.412-13.578-15.371-19.537l-8.628-8.628c6.598-35.499-5.671-73.692-32.593-100.614
	c-27.967-27.967-68.099-40.131-104.737-31.748c-2.806,0.642-4.996,2.833-5.638,5.638c-8.384,36.637,3.781,76.77,31.748,104.737
	c22.121,22.121,51.852,34.356,81.445,34.356c6.422,0,12.837-0.587,19.168-1.763l8.629,8.629
	c16.752,16.752,25.979,39.026,25.979,62.718v79.939c-22.759,1.544-44.602,10.051-62.474,24.442
	c-3.625-0.451-6.983-0.672-10.189-0.672c-33.158,0-63.317,18.726-78.186,48.098h-18.01c-4.142,0-7.5,3.358-7.5,7.5
	s3.358,7.5,7.5,7.5h352.72c4.142,0,7.5-3.358,7.5-7.5S436.502,497,432.359,497z M315.296,121.124
	c14.703-14.703,35.199-21.758,54.516-19.026c2.731,19.313-4.323,39.814-19.026,54.516c-12.164,12.163-28.296,19.085-44.439,19.57
	l19.088-19.101c2.928-2.93,2.926-7.679-0.003-10.607c-2.931-2.928-7.678-2.927-10.607,0.003l-19.098,19.111
	C296.205,149.437,303.127,133.294,315.296,121.124z M184.568,54.322c-10.569-10.57-15.812-25.165-14.28-39.067
	c13.9-1.531,28.498,3.71,39.068,14.28c8.305,8.306,13.303,19.098,14.327,30.085L201.75,37.687c-2.929-2.929-7.678-2.929-10.606,0
	c-2.929,2.929-2.929,7.678,0,10.606l19.878,19.878C201.312,66.483,191.956,61.71,184.568,54.322z M123.886,230.646
	c-23.149-23.15-33.895-55.734-28.673-86.086c30.355-5.223,62.938,5.524,86.086,28.673c20.749,20.749,31.523,49.076,29.777,76.584
	l-46.597-46.597c-2.929-2.929-7.678-2.929-10.606,0c-2.929,2.929-2.929,7.678,0,10.606l46.598,46.598
	C172.962,262.172,144.635,251.396,123.886,230.646z"/>
<g>
</g>
<g>
</g>
<g>
</g>
<g>
</g>
<g>
</g>
<g>
</g>
<g>
</g>
<g>
</g>
<g>
</g>
<g>
</g>
<g>
</g>
<g>
</g>
<g>
</g>
<g>
</g>
<g>
</g>
</svg>
