<?xml version="1.0" encoding="iso-8859-1"?>
<!-- Generator: Adobe Illustrator 19.0.0, SVG Export Plug-In . SVG Version: 6.00 Build 0)  -->
<svg version="1.1" id="Capa_1" xmlns="http://www.w3.org/2000/svg" xmlns:xlink="http://www.w3.org/1999/xlink" x="0px" y="0px"
	 viewBox="0 0 512 512" style="enable-background:new 0 0 512 512;" xml:space="preserve">
<path style="fill:#BEE86E;" d="M490.711,264.752c-17.927,42.708-75.55,146.167-231.535,214.019
	c-7.165,3.117-14.407-4.47-10.829-11.416c21.42-41.588,84.89-140.671,230.832-213.22
	C486.112,250.688,493.707,257.613,490.711,264.752z"/>
<path style="fill:#96BE4B;" d="M256,512L256,512c-9.207,0-16.671-7.464-16.671-16.671V320.288h33.341v175.041
	C272.671,504.536,265.207,512,256,512z"/>
<path style="fill:#FFA0A0;" d="M306.012,61.893c-19.818-28.607-35.303-48.548-43.515-58.769c-3.346-4.165-9.648-4.165-12.994,0
	c-8.211,10.221-23.697,30.163-43.515,58.769l25.006,58.347h58.347L306.012,61.893z"/>
<path style="fill:#FF8087;" d="M227.552,145.706c29.172-41.793,72.775-86.881,90.566-104.714c3.988-3.997,10.669-2.991,13.265,2.022
	c14.488,27.976,53.829,109.075,53.829,164.839c0,71.302-57.802,129.105-129.105,129.105
	C201.753,336.959,152.642,253.027,227.552,145.706z"/>
<path style="fill:#E6646E;" d="M284.555,145.706c-29.172-41.793-72.775-86.881-90.566-104.714
	c-3.988-3.997-10.669-2.991-13.265,2.022c-14.488,27.976-53.829,109.075-53.829,164.839c0,71.302,57.802,129.105,129.105,129.105
	C310.354,336.959,359.465,253.027,284.555,145.706z"/>
<path style="fill:#AFD755;" d="M21.289,264.752c17.927,42.708,75.55,146.167,231.535,214.019c7.165,3.117,14.407-4.47,10.829-11.416
	c-21.42-41.588-84.89-140.671-230.832-213.22C25.888,250.688,18.293,257.613,21.289,264.752z"/>
<g>
</g>
<g>
</g>
<g>
</g>
<g>
</g>
<g>
</g>
<g>
</g>
<g>
</g>
<g>
</g>
<g>
</g>
<g>
</g>
<g>
</g>
<g>
</g>
<g>
</g>
<g>
</g>
<g>
</g>
</svg>
